<svg xmlns="http://www.w3.org/2000/svg" viewBox="0 0 24 24" width="64" height="64">
  <rect width="24" height="24" rx="4" fill="#2F5D50"/>
  <path d="M12 3.2l1.8 1.3 2.1-.4 1 1.9 1.9 1-.4 2.1L19.7 11l-1.3 1.8.4 2.1-1.9 1-1 1.9-2.1-.4L12 18.7l-1.8 1.3-2.1-.4-1-1.9-1.9-1 .4-2.1L4.3 11l1.3-1.8-.4-2.1 1.9-1 1-1.9 2.1.4L12 3.2z" fill="none" stroke="#F2EFE6" stroke-width="1.1" stroke-linejoin="round"/>
  <path d="M8.7 11.3l2 2 4.2-4.4" fill="none" stroke="#F2EFE6" stroke-width="1.4" stroke-linecap="round" stroke-linejoin="round"/>
</svg>
